solid mount
facet normal 2.2514318950909918e-17 1.0 2.1985260863462336e-16
  outer loop
    vertex 3.723184241308771 -10.976254585154747 6.900818072870722
    vertex 89.22318581240805 -10.976291747277253 -12.09918192643753
    vertex 3.7231858124080404 -10.976291747277253 -12.09918192643753
  endloop
endfacet
facet normal 2.2514318950909918e-17 1.0 2.1985260863462336e-16
  outer loop
    vertex 89.22318581240805 -10.976291747277253 -12.09918192643753
    vertex 3.723184241308771 -10.976254585154747 6.900818072870722
    vertex 89.22318424130877 -10.976254585154747 6.900818072870722
  endloop
endfacet
facet normal -4.325101967098002e-17 -1.0 -2.983724378680108e-16
  outer loop
    vertex 74.22318424130877 -44.976254585154756 6.9022242728707415
    vertex 18.72318581240804 -44.976291747277266 -12.099181926437542
    vertex 74.22318581240805 -44.976291747277266 -12.099181926437542
  endloop
endfacet
facet normal -4.325101967098002e-17 -1.0 -2.983724378680108e-16
  outer loop
    vertex 18.72318581240804 -44.976291747277266 -12.099181926437542
    vertex 74.22318424130877 -44.976254585154756 6.9022242728707415
    vertex 18.723184241308772 -44.976254585154756 6.9022242728707415
  endloop
endfacet
facet normal -1.057487430955462e-16 1.2917444891513696e-16 -1.0
  outer loop
    vertex 61.723185812408055 -12.976291747277266 -10.09736917643752
    vertex 19.723185812408083 -42.97629174727727 -10.097369176437521
    vertex 19.723185812408083 -12.976291747277266 -10.09736917643751
  endloop
endfacet
facet normal -1.057487430955462e-16 1.2917444891513696e-16 -1.0
  outer loop
    vertex 19.723185812408083 -42.97629174727727 -10.097369176437521
    vertex 61.723185812408055 -12.976291747277266 -10.09736917643752
    vertex 61.723185812408055 -42.97629174727727 -10.097369176437521
  endloop
endfacet
facet normal 0.0 -1.0 -2.983724378680108e-16
  outer loop
    vertex 61.72318424130878 -12.976254585154765 6.9022242728707415
    vertex 19.723185812408083 -12.976291747277266 -10.09736917643751
    vertex 61.723185812408055 -12.976291747277266 -10.09736917643752
  endloop
endfacet
facet normal 0.0 -1.0 -2.983724378680108e-16
  outer loop
    vertex 19.723185812408083 -12.976291747277266 -10.09736917643751
    vertex 61.72318424130878 -12.976254585154765 6.9022242728707415
    vertex 19.723184241308815 -12.976254585154765 6.9022242728707495
  endloop
endfacet
facet normal 0.0 1.0 2.983724378680108e-16
  outer loop
    vertex 19.723184241308815 -42.97625458515476 6.9022242728707415
    vertex 61.723185812408055 -42.97629174727727 -10.097369176437521
    vertex 19.723185812408083 -42.97629174727727 -10.097369176437521
  endloop
endfacet
facet normal 0.0 1.0 2.983724378680108e-16
  outer loop
    vertex 61.723185812408055 -42.97629174727727 -10.097369176437521
    vertex 19.723184241308815 -42.97625458515476 6.9022242728707415
    vertex 61.72318424130878 -42.97625458515476 6.9022242728707415
  endloop
endfacet
facet normal 1.0 0.0 0.0
  outer loop
    vertex 19.723185812408083 -42.97629174727727 -10.097369176437521
    vertex 19.723185812408083 -29.87365834337829 -1.8841110714684932
    vertex 19.723184241308815 -42.97625458515476 6.9022242728707415
  endloop
endfacet
facet normal 1.0 0.0 0.0
  outer loop
    vertex 19.723185812408083 -29.87365834337829 -1.8841110714684932
    vertex 19.723185812408083 -42.97629174727727 -10.097369176437521
    vertex 19.723185812408083 -12.976291747277266 -10.09736917643751
  endloop
endfacet
facet normal 1.0 0.0 0.0
  outer loop
    vertex 19.723184241308815 -42.97625458515476 6.9022242728707415
    vertex 19.723185812408083 -29.87365834337829 -1.8841110714684932
    vertex 19.723185812408083 -30.659573320277005 -1.2810572994372487
  endloop
endfacet
facet normal 1.0 0.0 0.0
  outer loop
    vertex 19.723184241308815 -42.97625458515476 6.9022242728707415
    vertex 19.723185812408083 -30.659573320277005 -1.2810572994372487
    vertex 19.723185812408083 -31.26262709230825 -0.49514232253853013
  endloop
endfacet
facet normal 1.0 0.0 0.0
  outer loop
    vertex 19.723184241308815 -42.97625458515476 6.9022242728707415
    vertex 19.723185812408083 -31.26262709230825 -0.49514232253853013
    vertex 19.723185812408083 -31.641722541501576 0.4200750523379159
  endloop
endfacet
facet normal 1.0 0.0 0.0
  outer loop
    vertex 19.723184241308815 -42.97625458515476 6.9022242728707415
    vertex 19.723185812408083 -31.641722541501576 0.4200750523379159
    vertex 19.723185812408083 -31.771024939479307 1.402224273562488
  endloop
endfacet
facet normal 1.0 0.0 0.0
  outer loop
    vertex 19.723185812408083 -29.87365834337829 -1.8841110714684932
    vertex 19.723185812408083 -12.976291747277266 -10.09736917643751
    vertex 19.723185812408083 -28.95844096850184 -2.263206520661818
  endloop
endfacet
facet normal 1.0 0.0 0.0
  outer loop
    vertex 19.723185812408083 -28.95844096850184 -2.263206520661818
    vertex 19.723185812408083 -12.976291747277266 -10.09736917643751
    vertex 19.723185812408083 -27.976291747277262 -2.3925089186395483
  endloop
endfacet
facet normal 1.0 0.0 0.0
  outer loop
    vertex 19.723185812408083 -27.976291747277262 -2.3925089186395483
    vertex 19.723185812408083 -12.976291747277266 -10.09736917643751
    vertex 19.723185812408083 -26.99414252605269 -2.263206520661816
  endloop
endfacet
facet normal 1.0 0.0 0.0
  outer loop
    vertex 19.723185812408083 -26.99414252605269 -2.263206520661816
    vertex 19.723185812408083 -12.976291747277266 -10.09736917643751
    vertex 19.723185812408083 -26.078925151176247 -1.8841110714684906
  endloop
endfacet
facet normal 1.0 0.0 0.0
  outer loop
    vertex 19.723185812408083 -26.078925151176247 -1.8841110714684906
    vertex 19.723185812408083 -12.976291747277266 -10.09736917643751
    vertex 19.723185812408083 -25.29301017427753 -1.2810572994372416
  endloop
endfacet
facet normal 1.0 0.0 0.0
  outer loop
    vertex 19.723185812408083 -25.29301017427753 -1.2810572994372416
    vertex 19.723185812408083 -12.976291747277266 -10.09736917643751
    vertex 19.723185812408083 -24.689956402246285 -0.49514232253852414
  endloop
endfacet
facet normal 1.0 0.0 0.0
  outer loop
    vertex 19.723185812408083 -24.689956402246285 -0.49514232253852414
    vertex 19.723185812408083 -12.976291747277266 -10.09736917643751
    vertex 19.723185812408083 -24.31086095305296 0.42007505233792386
  endloop
endfacet
facet normal 1.0 0.0 0.0
  outer loop
    vertex 19.723185812408083 -24.31086095305296 0.42007505233792386
    vertex 19.723185812408083 -12.976291747277266 -10.09736917643751
    vertex 19.723185812408083 -24.18155855507523 1.402224273562497
  endloop
endfacet
facet normal 1.0 0.0 0.0
  outer loop
    vertex 19.723184241308815 -42.97625458515476 6.9022242728707415
    vertex 19.723185812408083 -27.976291747277276 5.196957465764531
    vertex 19.723184241308815 -12.976254585154765 6.9022242728707495
  endloop
endfacet
facet normal 1.0 0.0 0.0
  outer loop
    vertex 19.723185812408083 -27.976291747277276 5.196957465764531
    vertex 19.723184241308815 -42.97625458515476 6.9022242728707415
    vertex 19.723185812408083 -28.958440968501847 5.0676550677867995
  endloop
endfacet
facet normal 1.0 0.0 0.0
  outer loop
    vertex 19.723185812408083 -28.958440968501847 5.0676550677867995
    vertex 19.723184241308815 -42.97625458515476 6.9022242728707415
    vertex 19.723185812408083 -29.873658343378292 4.688559618593472
  endloop
endfacet
facet normal 1.0 0.0 0.0
  outer loop
    vertex 19.723185812408083 -29.873658343378292 4.688559618593472
    vertex 19.723184241308815 -42.97625458515476 6.9022242728707415
    vertex 19.723185812408083 -30.65957332027701 4.085505846562224
  endloop
endfacet
facet normal 1.0 0.0 0.0
  outer loop
    vertex 19.723185812408083 -30.65957332027701 4.085505846562224
    vertex 19.723184241308815 -42.97625458515476 6.9022242728707415
    vertex 19.723185812408083 -31.262627092308257 3.299590869663508
  endloop
endfacet
facet normal 1.0 0.0 0.0
  outer loop
    vertex 19.723185812408083 -31.262627092308257 3.299590869663508
    vertex 19.723184241308815 -42.97625458515476 6.9022242728707415
    vertex 19.723185812408083 -31.641722541501583 2.38437349478706
  endloop
endfacet
facet normal 1.0 0.0 0.0
  outer loop
    vertex 19.723185812408083 -31.641722541501583 2.38437349478706
    vertex 19.723184241308815 -42.97625458515476 6.9022242728707415
    vertex 19.723185812408083 -31.771024939479307 1.402224273562488
  endloop
endfacet
facet normal 1.0 0.0 0.0
  outer loop
    vertex 19.723184241308815 -12.976254585154765 6.9022242728707495
    vertex 19.723185812408083 -27.976291747277276 5.196957465764531
    vertex 19.723185812408083 -26.994142526052702 5.067655067786802
  endloop
endfacet
facet normal 1.0 0.0 0.0
  outer loop
    vertex 19.723184241308815 -12.976254585154765 6.9022242728707495
    vertex 19.723185812408083 -26.994142526052702 5.067655067786802
    vertex 19.723185812408083 -26.07892515117625 4.6885596185934775
  endloop
endfacet
facet normal 1.0 0.0 0.0
  outer loop
    vertex 19.723184241308815 -12.976254585154765 6.9022242728707495
    vertex 19.723185812408083 -26.07892515117625 4.6885596185934775
    vertex 19.723185812408083 -25.293010174277537 4.085505846562231
  endloop
endfacet
facet normal 1.0 0.0 0.0
  outer loop
    vertex 19.723184241308815 -12.976254585154765 6.9022242728707495
    vertex 19.723185812408083 -25.293010174277537 4.085505846562231
    vertex 19.723185812408083 -24.68995640224629 3.2995908696635152
  endloop
endfacet
facet normal 1.0 0.0 0.0
  outer loop
    vertex 19.723184241308815 -12.976254585154765 6.9022242728707495
    vertex 19.723185812408083 -24.68995640224629 3.2995908696635152
    vertex 19.723185812408083 -24.310860953052963 2.3843734947870683
  endloop
endfacet
facet normal 1.0 0.0 0.0
  outer loop
    vertex 19.723184241308815 -12.976254585154765 6.9022242728707495
    vertex 19.723185812408083 -24.310860953052963 2.3843734947870683
    vertex 19.723185812408083 -24.18155855507523 1.402224273562497
  endloop
endfacet
facet normal 1.0 0.0 0.0
  outer loop
    vertex 19.723184241308815 -12.976254585154765 6.9022242728707495
    vertex 19.723185812408083 -24.18155855507523 1.402224273562497
    vertex 19.723185812408083 -12.976291747277266 -10.09736917643751
  endloop
endfacet
facet normal 0.0 2.983724378680108e-16 -1.0
  outer loop
    vertex 89.22318581240805 -10.976291747277253 -12.09918192643753
    vertex 3.7231858124080404 -12.976291747277257 -12.09918192643753
    vertex 3.7231858124080404 -10.976291747277253 -12.09918192643753
  endloop
endfacet
facet normal 0.0 2.983724378680108e-16 -1.0
  outer loop
    vertex 3.7231858124080404 -12.976291747277257 -12.09918192643753
    vertex 89.22318581240805 -10.976291747277253 -12.09918192643753
    vertex 18.72318581240804 -12.976291747277257 -12.09918192643753
  endloop
endfacet
facet normal 0.0 2.983724378680108e-16 -1.0
  outer loop
    vertex 18.72318581240804 -12.976291747277257 -12.09918192643753
    vertex 89.22318581240805 -10.976291747277253 -12.09918192643753
    vertex 74.22318581240805 -12.976291747277257 -12.09918192643753
  endloop
endfacet
facet normal 0.0 2.983724378680108e-16 -1.0
  outer loop
    vertex 18.72318581240804 -12.976291747277257 -12.09918192643753
    vertex 74.22318581240805 -12.976291747277257 -12.09918192643753
    vertex 18.72318581240804 -44.976291747277266 -12.099181926437542
  endloop
endfacet
facet normal 0.0 2.983724378680108e-16 -1.0
  outer loop
    vertex 74.22318581240805 -12.976291747277257 -12.09918192643753
    vertex 89.22318581240805 -10.976291747277253 -12.09918192643753
    vertex 89.22318581240805 -12.976291747277257 -12.09918192643753
  endloop
endfacet
facet normal 0.0 2.983724378680108e-16 -1.0
  outer loop
    vertex 74.22318581240805 -44.976291747277266 -12.099181926437542
    vertex 18.72318581240804 -44.976291747277266 -12.099181926437542
    vertex 74.22318581240805 -12.976291747277257 -12.09918192643753
  endloop
endfacet
facet normal -1.0 9.687641504762183e-32 1.2085412552435274e-15
  outer loop
    vertex 61.7231842413088 -32.976254585154756 6.9022242728707495
    vertex 61.723185812408076 -32.976291747277266 0.9022242735624937
    vertex 61.72318424130878 -42.97625458515476 6.9022242728707415
  endloop
endfacet
facet normal -1.0 9.687641504762183e-32 1.2085412552435274e-15
  outer loop
    vertex 61.723185812408055 -42.97629174727727 -10.097369176437521
    vertex 61.723185812408055 -29.270386972789865 -3.927404857882821
    vertex 61.723185812408055 -12.976291747277266 -10.09736917643752
  endloop
endfacet
facet normal -1.0 9.687641504762183e-32 1.2085412552435274e-15
  outer loop
    vertex 61.723185812408055 -29.270386972789865 -3.927404857882821
    vertex 61.723185812408055 -42.97629174727727 -10.097369176437521
    vertex 61.723185812408055 -30.476291747277266 -3.427902745359673
  endloop
endfacet
facet normal -1.0 9.687641504762183e-32 1.2085412552435274e-15
  outer loop
    vertex 61.723185812408055 -30.476291747277266 -3.427902745359673
    vertex 61.723185812408055 -42.97629174727727 -10.097369176437521
    vertex 61.72318581240806 -31.51182565321 -2.633309632370218
  endloop
endfacet
facet normal -1.0 9.687641504762183e-32 1.2085412552435274e-15
  outer loop
    vertex 61.72318581240806 -31.51182565321 -2.633309632370218
    vertex 61.723185812408055 -42.97629174727727 -10.097369176437521
    vertex 61.72318424130878 -42.97625458515476 6.9022242728707415
  endloop
endfacet
facet normal -1.0 9.687641504762183e-32 1.2085412552435274e-15
  outer loop
    vertex 61.72318581240806 -31.51182565321 -2.633309632370218
    vertex 61.72318424130878 -42.97625458515476 6.9022242728707415
    vertex 61.72318581240806 -32.30641876619946 -1.5977757264374812
  endloop
endfacet
facet normal -1.0 9.687641504762183e-32 1.2085412552435274e-15
  outer loop
    vertex 61.72318581240806 -32.30641876619946 -1.5977757264374812
    vertex 61.72318424130878 -42.97625458515476 6.9022242728707415
    vertex 61.72318581240806 -32.80592087872261 -0.3918709519500835
  endloop
endfacet
facet normal -1.0 9.687641504762183e-32 1.2085412552435274e-15
  outer loop
    vertex 61.72318581240806 -32.80592087872261 -0.3918709519500835
    vertex 61.72318424130878 -42.97625458515476 6.9022242728707415
    vertex 61.723185812408076 -32.976291747277266 0.9022242735624937
  endloop
endfacet
facet normal -1.0 9.687641504762183e-32 1.2085412552435274e-15
  outer loop
    vertex 61.723185812408055 -12.976291747277266 -10.09736917643752
    vertex 61.723185812408055 -29.270386972789865 -3.927404857882821
    vertex 61.723185812408055 -27.97629174727726 -4.0977757264374794
  endloop
endfacet
facet normal -1.0 9.687641504762183e-32 1.2085412552435274e-15
  outer loop
    vertex 61.723185812408055 -12.976291747277266 -10.09736917643752
    vertex 61.723185812408055 -27.97629174727726 -4.0977757264374794
    vertex 61.723185812408055 -26.682196521764656 -3.9274048578828196
  endloop
endfacet
facet normal -1.0 9.687641504762183e-32 1.2085412552435274e-15
  outer loop
    vertex 61.723185812408055 -12.976291747277266 -10.09736917643752
    vertex 61.723185812408055 -26.682196521764656 -3.9274048578828196
    vertex 61.723185812408055 -25.476291747277262 -3.4279027453596718
  endloop
endfacet
facet normal -1.0 9.687641504762183e-32 1.2085412552435274e-15
  outer loop
    vertex 61.723185812408055 -12.976291747277266 -10.09736917643752
    vertex 61.723185812408055 -25.476291747277262 -3.4279027453596718
    vertex 61.72318581240806 -24.440757841344528 -2.6333096323702168
  endloop
endfacet
facet normal -1.0 9.687641504762183e-32 1.2085412552435274e-15
  outer loop
    vertex 61.723185812408055 -12.976291747277266 -10.09736917643752
    vertex 61.72318581240806 -24.440757841344528 -2.6333096323702168
    vertex 61.72318581240806 -23.646164728355068 -1.5977757264374786
  endloop
endfacet
facet normal -1.0 9.687641504762183e-32 1.2085412552435274e-15
  outer loop
    vertex 61.723185812408055 -12.976291747277266 -10.09736917643752
    vertex 61.72318581240806 -23.646164728355068 -1.5977757264374786
    vertex 61.72318581240806 -23.14666261583192 -0.3918709519500821
  endloop
endfacet
facet normal -1.0 9.687641504762183e-32 1.2085412552435274e-15
  outer loop
    vertex 61.723185812408055 -12.976291747277266 -10.09736917643752
    vertex 61.72318581240806 -23.14666261583192 -0.3918709519500821
    vertex 61.723185812408076 -22.97629174727727 0.9022242735624965
  endloop
endfacet
facet normal -1.0 9.687641504762183e-32 1.2085412552435274e-15
  outer loop
    vertex 61.723185812408055 -12.976291747277266 -10.09736917643752
    vertex 61.723185812408076 -22.97629174727727 0.9022242735624965
    vertex 61.7231842413088 -22.976254585154766 6.9022242728707495
  endloop
endfacet
facet normal -1.0 9.687641504762183e-32 1.2085412552435274e-15
  outer loop
    vertex 61.723185812408055 -12.976291747277266 -10.09736917643752
    vertex 61.7231842413088 -22.976254585154766 6.9022242728707495
    vertex 61.72318424130878 -12.976254585154765 6.9022242728707415
  endloop
endfacet
facet normal 0.0 1.0 2.983724378680108e-16
  outer loop
    vertex 61.723185812408076 -32.976291747277266 0.9022242735624937
    vertex 74.22318424130877 -32.976254585154756 6.9022242728707415
    vertex 74.22318581240805 -32.976291747277266 0.9022242735624852
  endloop
endfacet
facet normal 0.0 1.0 2.983724378680108e-16
  outer loop
    vertex 74.22318424130877 -32.976254585154756 6.9022242728707415
    vertex 61.723185812408076 -32.976291747277266 0.9022242735624937
    vertex 61.7231842413088 -32.976254585154756 6.9022242728707495
  endloop
endfacet
facet normal 3.1893455635871865e-16 0.9914448613738103 0.13052619222005324
  outer loop
    vertex 61.72318581240806 -32.80592087872261 -0.3918709519500835
    vertex 74.22318581240805 -32.976291747277266 0.9022242735624852
    vertex 74.22318581240803 -32.80592087872261 -0.39187095195011734
  endloop
endfacet
facet normal 3.1893455635871865e-16 0.9914448613738103 0.13052619222005324
  outer loop
    vertex 74.22318581240805 -32.976291747277266 0.9022242735624852
    vertex 61.72318581240806 -32.80592087872261 -0.3918709519500835
    vertex 61.723185812408076 -32.976291747277266 0.9022242735624937
  endloop
endfacet
facet normal 9.350688061245727e-16 0.9238795325112871 0.38268343236508945
  outer loop
    vertex 61.72318581240806 -32.30641876619946 -1.5977757264374812
    vertex 74.22318581240803 -32.80592087872261 -0.39187095195011734
    vertex 74.22318581240803 -32.30641876619946 -1.5977757264375152
  endloop
endfacet
facet normal 9.350688061245727e-16 0.9238795325112871 0.38268343236508945
  outer loop
    vertex 74.22318581240803 -32.80592087872261 -0.39187095195011734
    vertex 61.72318581240806 -32.30641876619946 -1.5977757264374812
    vertex 61.72318581240806 -32.80592087872261 -0.3918709519500835
  endloop
endfacet
facet normal 1.4874796620273105e-15 0.7933533402912343 0.6087614290087217
  outer loop
    vertex 61.72318581240806 -31.51182565321 -2.633309632370218
    vertex 74.22318581240803 -32.30641876619946 -1.5977757264375152
    vertex 74.22318581240803 -31.51182565321 -2.633309632370252
  endloop
endfacet
facet normal 1.4874796620273105e-15 0.7933533402912343 0.6087614290087217
  outer loop
    vertex 74.22318581240803 -32.30641876619946 -1.5977757264375152
    vertex 61.72318581240806 -31.51182565321 -2.633309632370218
    vertex 61.72318581240806 -32.30641876619946 -1.5977757264374812
  endloop
endfacet
facet normal 1.9385212371392495e-15 0.6087614290087203 0.7933533402912354
  outer loop
    vertex 61.72318581240806 -31.51182565321 -2.633309632370218
    vertex 74.22318581240803 -30.476291747277266 -3.4279027453597073
    vertex 61.723185812408055 -30.476291747277266 -3.427902745359673
  endloop
endfacet
facet normal 1.9385212371392495e-15 0.6087614290087203 0.7933533402912354
  outer loop
    vertex 74.22318581240803 -30.476291747277266 -3.4279027453597073
    vertex 61.72318581240806 -31.51182565321 -2.633309632370218
    vertex 74.22318581240803 -31.51182565321 -2.633309632370252
  endloop
endfacet
facet normal 2.257455793497966e-15 0.3826834323650889 0.9238795325112873
  outer loop
    vertex 74.22318581240803 -30.476291747277266 -3.4279027453597073
    vertex 61.723185812408055 -29.270386972789865 -3.927404857882821
    vertex 61.723185812408055 -30.476291747277266 -3.427902745359673
  endloop
endfacet
facet normal 2.257455793497966e-15 0.3826834323650889 0.9238795325112873
  outer loop
    vertex 61.723185812408055 -29.270386972789865 -3.927404857882821
    vertex 74.22318581240803 -30.476291747277266 -3.4279027453597073
    vertex 74.22318581240803 -29.270386972789865 -3.9274048578828546
  endloop
endfacet
facet normal 2.4225484681518825e-15 0.13052619222005143 0.9914448613738104
  outer loop
    vertex 74.22318581240803 -29.270386972789865 -3.9274048578828546
    vertex 61.723185812408055 -27.97629174727726 -4.0977757264374794
    vertex 61.723185812408055 -29.270386972789865 -3.927404857882821
  endloop
endfacet
facet normal 2.4225484681518825e-15 0.13052619222005143 0.9914448613738104
  outer loop
    vertex 61.723185812408055 -27.97629174727726 -4.0977757264374794
    vertex 74.22318581240803 -29.270386972789865 -3.9274048578828546
    vertex 74.22318581240803 -27.97629174727726 -4.097775726437513
  endloop
endfacet
facet normal 2.422548468151882e-15 -0.13052619222005218 0.9914448613738104
  outer loop
    vertex 74.22318581240803 -27.97629174727726 -4.097775726437513
    vertex 61.723185812408055 -26.682196521764656 -3.9274048578828196
    vertex 61.723185812408055 -27.97629174727726 -4.0977757264374794
  endloop
endfacet
facet normal 2.422548468151882e-15 -0.13052619222005218 0.9914448613738104
  outer loop
    vertex 61.723185812408055 -26.682196521764656 -3.9274048578828196
    vertex 74.22318581240803 -27.97629174727726 -4.097775726437513
    vertex 74.22318581240803 -26.682196521764656 -3.9274048578828533
  endloop
endfacet
facet normal 2.2574557934979652e-15 -0.3826834323650898 0.9238795325112868
  outer loop
    vertex 74.22318581240803 -26.682196521764656 -3.9274048578828533
    vertex 61.723185812408055 -25.476291747277262 -3.4279027453596718
    vertex 61.723185812408055 -26.682196521764656 -3.9274048578828196
  endloop
endfacet
facet normal 2.2574557934979652e-15 -0.3826834323650898 0.9238795325112868
  outer loop
    vertex 61.723185812408055 -25.476291747277262 -3.4279027453596718
    vertex 74.22318581240803 -26.682196521764656 -3.9274048578828533
    vertex 74.22318581240803 -25.476291747277262 -3.4279027453597055
  endloop
endfacet
facet normal 1.9385212371392476e-15 -0.6087614290087219 0.7933533402912342
  outer loop
    vertex 74.22318581240803 -25.476291747277262 -3.4279027453597055
    vertex 61.72318581240806 -24.440757841344528 -2.6333096323702168
    vertex 61.723185812408055 -25.476291747277262 -3.4279027453596718
  endloop
endfacet
facet normal 1.9385212371392476e-15 -0.6087614290087219 0.7933533402912342
  outer loop
    vertex 61.72318581240806 -24.440757841344528 -2.6333096323702168
    vertex 74.22318581240803 -25.476291747277262 -3.4279027453597055
    vertex 74.22318581240803 -24.440757841344528 -2.6333096323702505
  endloop
endfacet
facet normal 1.48747966202731e-15 -0.7933533402912347 0.6087614290087212
  outer loop
    vertex 74.22318581240803 -23.646164728355068 -1.5977757264375123
    vertex 61.72318581240806 -24.440757841344528 -2.6333096323702168
    vertex 74.22318581240803 -24.440757841344528 -2.6333096323702505
  endloop
endfacet
facet normal 1.48747966202731e-15 -0.7933533402912347 0.6087614290087212
  outer loop
    vertex 61.72318581240806 -24.440757841344528 -2.6333096323702168
    vertex 74.22318581240803 -23.646164728355068 -1.5977757264375123
    vertex 61.72318581240806 -23.646164728355068 -1.5977757264374786
  endloop
endfacet
facet normal 9.350688061245731e-16 -0.9238795325112871 0.3826834323650892
  outer loop
    vertex 74.22318581240803 -23.14666261583192 -0.39187095195011595
    vertex 61.72318581240806 -23.646164728355068 -1.5977757264374786
    vertex 74.22318581240803 -23.646164728355068 -1.5977757264375123
  endloop
endfacet
facet normal 9.350688061245731e-16 -0.9238795325112871 0.3826834323650892
  outer loop
    vertex 61.72318581240806 -23.646164728355068 -1.5977757264374786
    vertex 74.22318581240803 -23.14666261583192 -0.39187095195011595
    vertex 61.72318581240806 -23.14666261583192 -0.3918709519500821
  endloop
endfacet
facet normal 3.1893455635871534e-16 -0.9914448613738104 0.13052619222005143
  outer loop
    vertex 74.22318581240805 -22.97629174727727 0.902224273562488
    vertex 61.72318581240806 -23.14666261583192 -0.3918709519500821
    vertex 74.22318581240803 -23.14666261583192 -0.39187095195011595
  endloop
endfacet
facet normal 3.1893455635871534e-16 -0.9914448613738104 0.13052619222005143
  outer loop
    vertex 61.72318581240806 -23.14666261583192 -0.3918709519500821
    vertex 74.22318581240805 -22.97629174727727 0.902224273562488
    vertex 61.723185812408076 -22.97629174727727 0.9022242735624965
  endloop
endfacet
facet normal 0.0 -1.0 -2.983724378680108e-16
  outer loop
    vertex 74.22318424130877 -22.976254585154766 6.9022242728707415
    vertex 61.723185812408076 -22.97629174727727 0.9022242735624965
    vertex 74.22318581240805 -22.97629174727727 0.902224273562488
  endloop
endfacet
facet normal 0.0 -1.0 -2.983724378680108e-16
  outer loop
    vertex 61.723185812408076 -22.97629174727727 0.9022242735624965
    vertex 74.22318424130877 -22.976254585154766 6.9022242728707415
    vertex 61.7231842413088 -22.976254585154766 6.9022242728707495
  endloop
endfacet
facet normal -1.0 0.0 0.0
  outer loop
    vertex 3.723184241308771 -12.97625458515475 6.900818072870722
    vertex 3.7231858124080404 -10.976291747277253 -12.09918192643753
    vertex 3.7231858124080404 -12.976291747277257 -12.09918192643753
  endloop
endfacet
facet normal -1.0 0.0 0.0
  outer loop
    vertex 3.7231858124080404 -10.976291747277253 -12.09918192643753
    vertex 3.723184241308771 -12.97625458515475 6.900818072870722
    vertex 3.723184241308771 -10.976254585154747 6.900818072870722
  endloop
endfacet
facet normal 0.0 -1.0 0.0
  outer loop
    vertex 18.723184241308772 -12.97625458515475 6.900818072870722
    vertex 3.7231858124080404 -12.976291747277257 -12.09918192643753
    vertex 18.72318581240804 -12.976291747277257 -12.09918192643753
  endloop
endfacet
facet normal 0.0 -1.0 0.0
  outer loop
    vertex 3.7231858124080404 -12.976291747277257 -12.09918192643753
    vertex 18.723184241308772 -12.97625458515475 6.900818072870722
    vertex 3.723184241308771 -12.97625458515475 6.900818072870722
  endloop
endfacet
facet normal 1.0 -1.5926669464271477e-16 -4.737408187658797e-16
  outer loop
    vertex 74.22318581240805 -44.976291747277266 -12.099181926437542
    vertex 74.22318581240803 -30.476291747277266 -3.4279027453597073
    vertex 74.22318424130877 -44.976254585154756 6.9022242728707415
  endloop
endfacet
facet normal 1.0 -1.5926669464271477e-16 -4.737408187658797e-16
  outer loop
    vertex 74.22318581240803 -30.476291747277266 -3.4279027453597073
    vertex 74.22318581240805 -44.976291747277266 -12.099181926437542
    vertex 74.22318581240805 -12.976291747277257 -12.09918192643753
  endloop
endfacet
facet normal 1.0 -1.5926669464271477e-16 -4.737408187658797e-16
  outer loop
    vertex 74.22318424130877 -44.976254585154756 6.9022242728707415
    vertex 74.22318581240803 -30.476291747277266 -3.4279027453597073
    vertex 74.22318581240803 -31.51182565321 -2.633309632370252
  endloop
endfacet
facet normal 1.0 -1.5926669464271477e-16 -4.737408187658797e-16
  outer loop
    vertex 74.22318424130877 -44.976254585154756 6.9022242728707415
    vertex 74.22318581240803 -31.51182565321 -2.633309632370252
    vertex 74.22318581240803 -32.30641876619946 -1.5977757264375152
  endloop
endfacet
facet normal 1.0 -1.5926669464271477e-16 -4.737408187658797e-16
  outer loop
    vertex 74.22318424130877 -44.976254585154756 6.9022242728707415
    vertex 74.22318581240803 -32.30641876619946 -1.5977757264375152
    vertex 74.22318581240803 -32.80592087872261 -0.39187095195011734
  endloop
endfacet
facet normal 1.0 -1.5926669464271477e-16 -4.737408187658797e-16
  outer loop
    vertex 74.22318424130877 -44.976254585154756 6.9022242728707415
    vertex 74.22318581240803 -32.80592087872261 -0.39187095195011734
    vertex 74.22318581240805 -32.976291747277266 0.9022242735624852
  endloop
endfacet
facet normal 1.0 -1.5926669464271477e-16 -4.737408187658797e-16
  outer loop
    vertex 74.22318581240803 -30.476291747277266 -3.4279027453597073
    vertex 74.22318581240805 -12.976291747277257 -12.09918192643753
    vertex 74.22318581240803 -29.270386972789865 -3.9274048578828546
  endloop
endfacet
facet normal 1.0 -1.5926669464271477e-16 -4.737408187658797e-16
  outer loop
    vertex 74.22318581240803 -29.270386972789865 -3.9274048578828546
    vertex 74.22318581240805 -12.976291747277257 -12.09918192643753
    vertex 74.22318581240803 -27.97629174727726 -4.097775726437513
  endloop
endfacet
facet normal 1.0 -1.5926669464271477e-16 -4.737408187658797e-16
  outer loop
    vertex 74.22318581240803 -27.97629174727726 -4.097775726437513
    vertex 74.22318581240805 -12.976291747277257 -12.09918192643753
    vertex 74.22318581240803 -26.682196521764656 -3.9274048578828533
  endloop
endfacet
facet normal 1.0 -1.5926669464271477e-16 -4.737408187658797e-16
  outer loop
    vertex 74.22318581240803 -26.682196521764656 -3.9274048578828533
    vertex 74.22318581240805 -12.976291747277257 -12.09918192643753
    vertex 74.22318581240803 -25.476291747277262 -3.4279027453597055
  endloop
endfacet
facet normal 1.0 -1.5926669464271477e-16 -4.737408187658797e-16
  outer loop
    vertex 74.22318581240803 -25.476291747277262 -3.4279027453597055
    vertex 74.22318581240805 -12.976291747277257 -12.09918192643753
    vertex 74.22318581240803 -24.440757841344528 -2.6333096323702505
  endloop
endfacet
facet normal 1.0 -1.5926669464271477e-16 -4.737408187658797e-16
  outer loop
    vertex 74.22318581240803 -24.440757841344528 -2.6333096323702505
    vertex 74.22318581240805 -12.976291747277257 -12.09918192643753
    vertex 74.22318581240803 -23.646164728355068 -1.5977757264375123
  endloop
endfacet
facet normal 1.0 -1.5926669464271477e-16 -4.737408187658797e-16
  outer loop
    vertex 74.22318581240803 -23.646164728355068 -1.5977757264375123
    vertex 74.22318581240805 -12.976291747277257 -12.09918192643753
    vertex 74.22318581240803 -23.14666261583192 -0.39187095195011595
  endloop
endfacet
facet normal 1.0 -1.5926669464271477e-16 -4.737408187658797e-16
  outer loop
    vertex 74.22318581240803 -23.14666261583192 -0.39187095195011595
    vertex 74.22318581240805 -12.976291747277257 -12.09918192643753
    vertex 74.22318581240805 -22.97629174727727 0.902224273562488
  endloop
endfacet
facet normal 1.0 -1.5926669464271477e-16 -4.737408187658797e-16
  outer loop
    vertex 74.22318581240805 -22.97629174727727 0.902224273562488
    vertex 74.22318581240805 -12.976291747277257 -12.09918192643753
    vertex 74.22318424130877 -22.976254585154766 6.9022242728707415
  endloop
endfacet
facet normal 1.0 -1.5926669464271477e-16 -4.737408187658797e-16
  outer loop
    vertex 74.22318424130877 -22.976254585154766 6.9022242728707415
    vertex 74.22318581240805 -12.976291747277257 -12.09918192643753
    vertex 74.22318424130877 -12.97625458515475 6.900818072870722
  endloop
endfacet
facet normal 1.0 -1.5926669464271477e-16 -4.737408187658797e-16
  outer loop
    vertex 74.22318424130877 -32.976254585154756 6.9022242728707415
    vertex 74.22318424130877 -44.976254585154756 6.9022242728707415
    vertex 74.22318581240805 -32.976291747277266 0.9022242735624852
  endloop
endfacet
facet normal 1.0 0.0 0.0
  outer loop
    vertex 89.22318581240805 -10.976291747277253 -12.09918192643753
    vertex 89.22318424130877 -12.97625458515475 6.900818072870722
    vertex 89.22318581240805 -12.976291747277257 -12.09918192643753
  endloop
endfacet
facet normal 1.0 0.0 0.0
  outer loop
    vertex 89.22318424130877 -12.97625458515475 6.900818072870722
    vertex 89.22318581240805 -10.976291747277253 -12.09918192643753
    vertex 89.22318424130877 -10.976254585154747 6.900818072870722
  endloop
endfacet
facet normal -1.5710992700860678e-06 3.7162122509707275e-05 0.9999999993082542
  outer loop
    vertex 18.723184241308772 -44.976254585154756 6.9022242728707415
    vertex 19.723184241308815 -42.97625458515476 6.9022242728707415
    vertex 18.723184241308772 -12.97625458515475 6.900818072870722
  endloop
endfacet
facet normal -1.5710992700860678e-06 3.7162122509707275e-05 0.9999999993082542
  outer loop
    vertex 19.723184241308815 -42.97625458515476 6.9022242728707415
    vertex 18.723184241308772 -44.976254585154756 6.9022242728707415
    vertex 74.22318424130877 -44.976254585154756 6.9022242728707415
  endloop
endfacet
facet normal -1.5710992700860678e-06 3.7162122509707275e-05 0.9999999993082542
  outer loop
    vertex 19.723184241308815 -42.97625458515476 6.9022242728707415
    vertex 74.22318424130877 -44.976254585154756 6.9022242728707415
    vertex 61.72318424130878 -42.97625458515476 6.9022242728707415
  endloop
endfacet
facet normal -1.5710992700860678e-06 3.7162122509707275e-05 0.9999999993082542
  outer loop
    vertex 61.72318424130878 -42.97625458515476 6.9022242728707415
    vertex 74.22318424130877 -44.976254585154756 6.9022242728707415
    vertex 61.7231842413088 -32.976254585154756 6.9022242728707495
  endloop
endfacet
facet normal -1.5710992700860678e-06 3.7162122509707275e-05 0.9999999993082542
  outer loop
    vertex 61.7231842413088 -32.976254585154756 6.9022242728707495
    vertex 74.22318424130877 -44.976254585154756 6.9022242728707415
    vertex 74.22318424130877 -32.976254585154756 6.9022242728707415
  endloop
endfacet
facet normal -1.5710992700860678e-06 3.7162122509707275e-05 0.9999999993082542
  outer loop
    vertex 18.723184241308772 -12.97625458515475 6.900818072870722
    vertex 3.723184241308771 -10.976254585154747 6.900818072870722
    vertex 3.723184241308771 -12.97625458515475 6.900818072870722
  endloop
endfacet
facet normal -1.5710992700860678e-06 3.7162122509707275e-05 0.9999999993082542
  outer loop
    vertex 3.723184241308771 -10.976254585154747 6.900818072870722
    vertex 18.723184241308772 -12.97625458515475 6.900818072870722
    vertex 89.22318424130877 -10.976254585154747 6.900818072870722
  endloop
endfacet
facet normal -1.5710992700860678e-06 3.7162122509707275e-05 0.9999999993082542
  outer loop
    vertex 89.22318424130877 -10.976254585154747 6.900818072870722
    vertex 18.723184241308772 -12.97625458515475 6.900818072870722
    vertex 19.723184241308815 -12.976254585154765 6.9022242728707495
  endloop
endfacet
facet normal -1.5710992700860678e-06 3.7162122509707275e-05 0.9999999993082542
  outer loop
    vertex 19.723184241308815 -12.976254585154765 6.9022242728707495
    vertex 18.723184241308772 -12.97625458515475 6.900818072870722
    vertex 19.723184241308815 -42.97625458515476 6.9022242728707415
  endloop
endfacet
facet normal -1.5710992700860678e-06 3.7162122509707275e-05 0.9999999993082542
  outer loop
    vertex 89.22318424130877 -10.976254585154747 6.900818072870722
    vertex 19.723184241308815 -12.976254585154765 6.9022242728707495
    vertex 61.72318424130878 -12.976254585154765 6.9022242728707415
  endloop
endfacet
facet normal -1.5710992700860678e-06 3.7162122509707275e-05 0.9999999993082542
  outer loop
    vertex 89.22318424130877 -10.976254585154747 6.900818072870722
    vertex 61.72318424130878 -12.976254585154765 6.9022242728707415
    vertex 74.22318424130877 -12.97625458515475 6.900818072870722
  endloop
endfacet
facet normal -1.5710992700860678e-06 3.7162122509707275e-05 0.9999999993082542
  outer loop
    vertex 74.22318424130877 -12.97625458515475 6.900818072870722
    vertex 61.72318424130878 -12.976254585154765 6.9022242728707415
    vertex 61.7231842413088 -22.976254585154766 6.9022242728707495
  endloop
endfacet
facet normal -1.5710992700860678e-06 3.7162122509707275e-05 0.9999999993082542
  outer loop
    vertex 74.22318424130877 -12.97625458515475 6.900818072870722
    vertex 61.7231842413088 -22.976254585154766 6.9022242728707495
    vertex 74.22318424130877 -22.976254585154766 6.9022242728707415
  endloop
endfacet
facet normal -1.5710992700860678e-06 3.7162122509707275e-05 0.9999999993082542
  outer loop
    vertex 89.22318424130877 -10.976254585154747 6.900818072870722
    vertex 74.22318424130877 -12.97625458515475 6.900818072870722
    vertex 89.22318424130877 -12.97625458515475 6.900818072870722
  endloop
endfacet
facet normal 0.0 -1.0 -2.983724378680108e-16
  outer loop
    vertex 89.22318424130877 -12.97625458515475 6.900818072870722
    vertex 74.22318581240805 -12.976291747277257 -12.09918192643753
    vertex 89.22318581240805 -12.976291747277257 -12.09918192643753
  endloop
endfacet
facet normal 0.0 -1.0 -2.983724378680108e-16
  outer loop
    vertex 74.22318581240805 -12.976291747277257 -12.09918192643753
    vertex 89.22318424130877 -12.97625458515475 6.900818072870722
    vertex 74.22318424130877 -12.97625458515475 6.900818072870722
  endloop
endfacet
facet normal -0.0 -0.7933533402912358 0.6087614290087199
  outer loop
    vertex 19.723185812408083 -24.689956402246285 -0.49514232253852414
    vertex 18.723185812408065 -25.29301017427753 -1.2810572994372416
    vertex 19.723185812408083 -25.29301017427753 -1.2810572994372416
  endloop
endfacet
facet normal -0.0 -0.7933533402912358 0.6087614290087199
  outer loop
    vertex 18.723185812408065 -25.29301017427753 -1.2810572994372416
    vertex 19.723185812408083 -24.689956402246285 -0.49514232253852414
    vertex 18.723185812408065 -24.689956402246285 -0.49514232253852414
  endloop
endfacet
facet normal -0.0 -0.9238795325112868 0.3826834323650897
  outer loop
    vertex 19.723185812408083 -24.31086095305296 0.42007505233792386
    vertex 18.723185812408065 -24.689956402246285 -0.49514232253852414
    vertex 19.723185812408083 -24.689956402246285 -0.49514232253852414
  endloop
endfacet
facet normal -0.0 -0.9238795325112868 0.3826834323650897
  outer loop
    vertex 18.723185812408065 -24.689956402246285 -0.49514232253852414
    vertex 19.723185812408083 -24.31086095305296 0.42007505233792386
    vertex 18.723185812408065 -24.31086095305296 0.42007505233792386
  endloop
endfacet
facet normal -0.0 -0.9914448613738108 0.13052619222004835
  outer loop
    vertex 19.723185812408083 -24.18155855507523 1.402224273562497
    vertex 18.723185812408065 -24.31086095305296 0.42007505233792386
    vertex 19.723185812408083 -24.31086095305296 0.42007505233792386
  endloop
endfacet
facet normal -0.0 -0.9914448613738108 0.13052619222004835
  outer loop
    vertex 18.723185812408065 -24.31086095305296 0.42007505233792386
    vertex 19.723185812408083 -24.18155855507523 1.402224273562497
    vertex 18.723185812408065 -24.18155855507523 1.402224273562497
  endloop
endfacet
facet normal -0.0 -0.9914448613738102 -0.1305261922200542
  outer loop
    vertex 19.723185812408083 -24.310860953052963 2.3843734947870683
    vertex 18.723185812408065 -24.18155855507523 1.402224273562497
    vertex 19.723185812408083 -24.18155855507523 1.402224273562497
  endloop
endfacet
facet normal -0.0 -0.9914448613738102 -0.1305261922200542
  outer loop
    vertex 18.723185812408065 -24.18155855507523 1.402224273562497
    vertex 19.723185812408083 -24.310860953052963 2.3843734947870683
    vertex 18.723185812408065 -24.310860953052963 2.3843734947870683
  endloop
endfacet
facet normal -0.0 -0.9238795325112867 -0.3826834323650901
  outer loop
    vertex 19.723185812408083 -24.68995640224629 3.2995908696635152
    vertex 18.723185812408065 -24.310860953052963 2.3843734947870683
    vertex 19.723185812408083 -24.310860953052963 2.3843734947870683
  endloop
endfacet
facet normal -0.0 -0.9238795325112867 -0.3826834323650901
  outer loop
    vertex 18.723185812408065 -24.310860953052963 2.3843734947870683
    vertex 19.723185812408083 -24.68995640224629 3.2995908696635152
    vertex 18.723185812408065 -24.68995640224629 3.2995908696635152
  endloop
endfacet
facet normal -0.0 -0.7933533402912342 -0.6087614290087221
  outer loop
    vertex 19.723185812408083 -25.293010174277537 4.085505846562231
    vertex 18.723185812408065 -24.68995640224629 3.2995908696635152
    vertex 19.723185812408083 -24.68995640224629 3.2995908696635152
  endloop
endfacet
facet normal -0.0 -0.7933533402912342 -0.6087614290087221
  outer loop
    vertex 18.723185812408065 -24.68995640224629 3.2995908696635152
    vertex 19.723185812408083 -25.293010174277537 4.085505846562231
    vertex 18.723185812408065 -25.293010174277537 4.085505846562231
  endloop
endfacet
facet normal -0.0 -0.6087614290087217 -0.7933533402912344
  outer loop
    vertex 19.723185812408083 -25.293010174277537 4.085505846562231
    vertex 18.723185812408065 -26.07892515117625 4.6885596185934775
    vertex 18.723185812408065 -25.293010174277537 4.085505846562231
  endloop
endfacet
facet normal -0.0 -0.6087614290087217 -0.7933533402912344
  outer loop
    vertex 18.723185812408065 -26.07892515117625 4.6885596185934775
    vertex 19.723185812408083 -25.293010174277537 4.085505846562231
    vertex 19.723185812408083 -26.07892515117625 4.6885596185934775
  endloop
endfacet
facet normal -0.0 -0.38268343236508695 -0.923879532511288
  outer loop
    vertex 19.723185812408083 -26.07892515117625 4.6885596185934775
    vertex 18.723185812408065 -26.994142526052702 5.067655067786802
    vertex 18.723185812408065 -26.07892515117625 4.6885596185934775
  endloop
endfacet
facet normal -0.0 -0.38268343236508695 -0.923879532511288
  outer loop
    vertex 18.723185812408065 -26.994142526052702 5.067655067786802
    vertex 19.723185812408083 -26.07892515117625 4.6885596185934775
    vertex 19.723185812408083 -26.994142526052702 5.067655067786802
  endloop
endfacet
facet normal -0.0 -0.13052619222004996 -0.9914448613738106
  outer loop
    vertex 19.723185812408083 -26.994142526052702 5.067655067786802
    vertex 18.723185812408065 -27.976291747277276 5.196957465764531
    vertex 18.723185812408065 -26.994142526052702 5.067655067786802
  endloop
endfacet
facet normal -0.0 -0.13052619222004996 -0.9914448613738106
  outer loop
    vertex 18.723185812408065 -27.976291747277276 5.196957465764531
    vertex 19.723185812408083 -26.994142526052702 5.067655067786802
    vertex 19.723185812408083 -27.976291747277276 5.196957465764531
  endloop
endfacet
facet normal -0.0 0.13052619222005207 -0.9914448613738104
  outer loop
    vertex 19.723185812408083 -27.976291747277276 5.196957465764531
    vertex 18.723185812408065 -28.958440968501847 5.0676550677867995
    vertex 18.723185812408065 -27.976291747277276 5.196957465764531
  endloop
endfacet
facet normal -0.0 0.13052619222005207 -0.9914448613738104
  outer loop
    vertex 18.723185812408065 -28.958440968501847 5.0676550677867995
    vertex 19.723185812408083 -27.976291747277276 5.196957465764531
    vertex 19.723185812408083 -28.958440968501847 5.0676550677867995
  endloop
endfacet
facet normal -0.0 0.3826834323650914 -0.9238795325112861
  outer loop
    vertex 19.723185812408083 -28.958440968501847 5.0676550677867995
    vertex 18.723185812408065 -29.873658343378292 4.688559618593472
    vertex 18.723185812408065 -28.958440968501847 5.0676550677867995
  endloop
endfacet
facet normal -0.0 0.3826834323650914 -0.9238795325112861
  outer loop
    vertex 18.723185812408065 -29.873658343378292 4.688559618593472
    vertex 19.723185812408083 -28.958440968501847 5.0676550677867995
    vertex 19.723185812408083 -29.873658343378292 4.688559618593472
  endloop
endfacet
facet normal -0.0 0.6087614290087217 -0.7933533402912344
  outer loop
    vertex 19.723185812408083 -29.873658343378292 4.688559618593472
    vertex 18.723185812408065 -30.65957332027701 4.085505846562224
    vertex 18.723185812408065 -29.873658343378292 4.688559618593472
  endloop
endfacet
facet normal -0.0 0.6087614290087217 -0.7933533402912344
  outer loop
    vertex 18.723185812408065 -30.65957332027701 4.085505846562224
    vertex 19.723185812408083 -29.873658343378292 4.688559618593472
    vertex 19.723185812408083 -30.65957332027701 4.085505846562224
  endloop
endfacet
facet normal -0.0 0.7933533402912356 -0.6087614290087203
  outer loop
    vertex 18.723185812408065 -30.65957332027701 4.085505846562224
    vertex 19.723185812408083 -31.262627092308257 3.299590869663508
    vertex 18.723185812408065 -31.262627092308257 3.299590869663508
  endloop
endfacet
facet normal -0.0 0.7933533402912356 -0.6087614290087203
  outer loop
    vertex 19.723185812408083 -31.262627092308257 3.299590869663508
    vertex 18.723185812408065 -30.65957332027701 4.085505846562224
    vertex 19.723185812408083 -30.65957332027701 4.085505846562224
  endloop
endfacet
facet normal -0.0 0.9238795325112868 -0.3826834323650895
  outer loop
    vertex 18.723185812408065 -31.262627092308257 3.299590869663508
    vertex 19.723185812408083 -31.641722541501583 2.38437349478706
    vertex 18.723185812408065 -31.641722541501583 2.38437349478706
  endloop
endfacet
facet normal -0.0 0.9238795325112868 -0.3826834323650895
  outer loop
    vertex 19.723185812408083 -31.641722541501583 2.38437349478706
    vertex 18.723185812408065 -31.262627092308257 3.299590869663508
    vertex 19.723185812408083 -31.262627092308257 3.299590869663508
  endloop
endfacet
facet normal -0.0 0.9914448613738113 -0.13052619222004572
  outer loop
    vertex 18.723185812408065 -31.641722541501583 2.38437349478706
    vertex 19.723185812408083 -31.771024939479307 1.402224273562488
    vertex 18.723185812408065 -31.771024939479307 1.402224273562488
  endloop
endfacet
facet normal -0.0 0.9914448613738113 -0.13052619222004572
  outer loop
    vertex 19.723185812408083 -31.771024939479307 1.402224273562488
    vertex 18.723185812408065 -31.641722541501583 2.38437349478706
    vertex 19.723185812408083 -31.641722541501583 2.38437349478706
  endloop
endfacet
facet normal 0.0 0.9914448613738104 0.1305261922200513
  outer loop
    vertex 18.723185812408065 -31.771024939479307 1.402224273562488
    vertex 19.723185812408083 -31.641722541501576 0.4200750523379159
    vertex 18.723185812408065 -31.641722541501576 0.4200750523379159
  endloop
endfacet
facet normal 0.0 0.9914448613738104 0.1305261922200513
  outer loop
    vertex 19.723185812408083 -31.641722541501576 0.4200750523379159
    vertex 18.723185812408065 -31.771024939479307 1.402224273562488
    vertex 19.723185812408083 -31.771024939479307 1.402224273562488
  endloop
endfacet
facet normal 0.0 0.9238795325112865 0.38268343236509045
  outer loop
    vertex 18.723185812408065 -31.641722541501576 0.4200750523379159
    vertex 19.723185812408083 -31.26262709230825 -0.49514232253853013
    vertex 18.723185812408065 -31.26262709230825 -0.49514232253853013
  endloop
endfacet
facet normal 0.0 0.9238795325112865 0.38268343236509045
  outer loop
    vertex 19.723185812408083 -31.26262709230825 -0.49514232253853013
    vertex 18.723185812408065 -31.641722541501576 0.4200750523379159
    vertex 19.723185812408083 -31.641722541501576 0.4200750523379159
  endloop
endfacet
facet normal 0.0 0.7933533402912363 0.6087614290087193
  outer loop
    vertex 18.723185812408065 -31.26262709230825 -0.49514232253853013
    vertex 19.723185812408083 -30.659573320277005 -1.2810572994372487
    vertex 18.723185812408065 -30.659573320277005 -1.2810572994372487
  endloop
endfacet
facet normal 0.0 0.7933533402912363 0.6087614290087193
  outer loop
    vertex 19.723185812408083 -30.659573320277005 -1.2810572994372487
    vertex 18.723185812408065 -31.26262709230825 -0.49514232253853013
    vertex 19.723185812408083 -31.26262709230825 -0.49514232253853013
  endloop
endfacet
facet normal 0.0 0.6087614290087197 0.7933533402912359
  outer loop
    vertex 19.723185812408083 -30.659573320277005 -1.2810572994372487
    vertex 18.723185812408065 -29.87365834337829 -1.8841110714684932
    vertex 18.723185812408065 -30.659573320277005 -1.2810572994372487
  endloop
endfacet
facet normal 0.0 0.6087614290087197 0.7933533402912359
  outer loop
    vertex 18.723185812408065 -29.87365834337829 -1.8841110714684932
    vertex 19.723185812408083 -30.659573320277005 -1.2810572994372487
    vertex 19.723185812408083 -29.87365834337829 -1.8841110714684932
  endloop
endfacet
facet normal 0.0 0.38268343236508895 0.9238795325112871
  outer loop
    vertex 19.723185812408083 -29.87365834337829 -1.8841110714684932
    vertex 18.723185812408065 -28.95844096850184 -2.263206520661818
    vertex 18.723185812408065 -29.87365834337829 -1.8841110714684932
  endloop
endfacet
facet normal 0.0 0.38268343236508895 0.9238795325112871
  outer loop
    vertex 18.723185812408065 -28.95844096850184 -2.263206520661818
    vertex 19.723185812408083 -29.87365834337829 -1.8841110714684932
    vertex 19.723185812408083 -28.95844096850184 -2.263206520661818
  endloop
endfacet
facet normal 0.0 0.13052619222005066 0.9914448613738107
  outer loop
    vertex 19.723185812408083 -28.95844096850184 -2.263206520661818
    vertex 18.723185812408065 -27.976291747277262 -2.3925089186395483
    vertex 18.723185812408065 -28.95844096850184 -2.263206520661818
  endloop
endfacet
facet normal 0.0 0.13052619222005066 0.9914448613738107
  outer loop
    vertex 18.723185812408065 -27.976291747277262 -2.3925089186395483
    vertex 19.723185812408083 -28.95844096850184 -2.263206520661818
    vertex 19.723185812408083 -27.976291747277262 -2.3925089186395483
  endloop
endfacet
facet normal -0.0 -0.13052619222005277 0.9914448613738104
  outer loop
    vertex 19.723185812408083 -27.976291747277262 -2.3925089186395483
    vertex 18.723185812408065 -26.99414252605269 -2.263206520661816
    vertex 18.723185812408065 -27.976291747277262 -2.3925089186395483
  endloop
endfacet
facet normal -0.0 -0.13052619222005277 0.9914448613738104
  outer loop
    vertex 18.723185812408065 -26.99414252605269 -2.263206520661816
    vertex 19.723185812408083 -27.976291747277262 -2.3925089186395483
    vertex 19.723185812408083 -26.99414252605269 -2.263206520661816
  endloop
endfacet
facet normal -0.0 -0.38268343236509017 0.9238795325112866
  outer loop
    vertex 19.723185812408083 -26.99414252605269 -2.263206520661816
    vertex 18.723185812408065 -26.078925151176247 -1.8841110714684906
    vertex 18.723185812408065 -26.99414252605269 -2.263206520661816
  endloop
endfacet
facet normal -0.0 -0.38268343236509017 0.9238795325112866
  outer loop
    vertex 18.723185812408065 -26.078925151176247 -1.8841110714684906
    vertex 19.723185812408083 -26.99414252605269 -2.263206520661816
    vertex 19.723185812408083 -26.078925151176247 -1.8841110714684906
  endloop
endfacet
facet normal -0.0 -0.6087614290087223 0.7933533402912338
  outer loop
    vertex 19.723185812408083 -26.078925151176247 -1.8841110714684906
    vertex 18.723185812408065 -25.29301017427753 -1.2810572994372416
    vertex 18.723185812408065 -26.078925151176247 -1.8841110714684906
  endloop
endfacet
facet normal -0.0 -0.6087614290087223 0.7933533402912338
  outer loop
    vertex 18.723185812408065 -25.29301017427753 -1.2810572994372416
    vertex 19.723185812408083 -26.078925151176247 -1.8841110714684906
    vertex 19.723185812408083 -25.29301017427753 -1.2810572994372416
  endloop
endfacet
endsolid mount
