<?xml version="1.0" standalone="no"?>
 <!DOCTYPE svg PUBLIC "-//W3C//DTD SVG 1.1//EN" 
 "http://www.w3.org/Graphics/SVG/1.1/DTD/svg11.dtd"> 
<svg xmlns="http://www.w3.org/2000/svg" version="1.1" 
    width="29.7002cm" height="21.0007cm" viewBox="0 0 116929 82679 ">
<title>SVG Picture created as PlantWaterer.svg date 2014/06/27 10:03:41 </title>
  <desc>Picture generated by Eeschema-SVG </desc>
<g style="fill:#000000; fill-opacity:1;stroke:#000000; stroke-opacity:1;
stroke-linecap:round; stroke-linejoin:round; "
 transform="translate(0 0) scale(1 1)">
</g>
<g style="fill:#000000; fill-opacity:0.0; 
stroke:#000000; stroke-width:0; stroke-opacity:1; 
stroke-linecap:round; stroke-linejoin:round;">
</g>
<g style="fill:#9F0000; fill-opacity:0.0; 
stroke:#9F0000; stroke-width:60; stroke-opacity:1; 
stroke-linecap:round; stroke-linejoin:round;">
<rect x="39000" y="28500" width="9000" height="8000" rx="0" />
<path d="M39000 30500
L36000 30500
" />
</g>
<g style="fill:#009F9F; fill-opacity:0.0; 
stroke:#009F9F; stroke-width:60; stroke-opacity:1; 
stroke-linecap:round; stroke-linejoin:round;">
<path d="M39520 30700
L39520 30200
L39710 30200
L39760 30230
L39780 30250
L39800 30300
L39800 30370
L39780 30420
L39760 30440
L39710 30460
L39520 30460
" />
<path d="M40020 30700
L40020 30200
" />
<path d="M40260 30700
L40260 30200
L40540 30700
L40540 30200
" />
<path d="M41040 30700
L40760 30700
" />
<path d="M40900 30700
L40900 30200
L40850 30270
L40800 30320
L40760 30350
" />
</g>
<g style="fill:#9F0000; fill-opacity:0.0; 
stroke:#9F0000; stroke-width:60; stroke-opacity:1; 
stroke-linecap:round; stroke-linejoin:round;">
<path d="M37640 30350
L37360 30350
" />
<path d="M37500 30350
L37500 29850
L37450 29920
L37400 29970
L37360 30000
" />
<path d="M39000 31500
L36000 31500
" />
</g>
<g style="fill:#009F9F; fill-opacity:0.0; 
stroke:#009F9F; stroke-width:60; stroke-opacity:1; 
stroke-linecap:round; stroke-linejoin:round;">
<path d="M39520 31700
L39520 31200
L39710 31200
L39760 31230
L39780 31250
L39800 31300
L39800 31370
L39780 31420
L39760 31440
L39710 31460
L39520 31460
" />
<path d="M40020 31700
L40020 31200
" />
<path d="M40260 31700
L40260 31200
L40540 31700
L40540 31200
" />
<path d="M40760 31250
L40780 31230
L40830 31200
L40950 31200
L40990 31230
L41020 31250
L41040 31300
L41040 31350
L41020 31420
L40730 31700
L41040 31700
" />
</g>
<g style="fill:#9F0000; fill-opacity:0.0; 
stroke:#9F0000; stroke-width:60; stroke-opacity:1; 
stroke-linecap:round; stroke-linejoin:round;">
<path d="M37360 30900
L37380 30880
L37430 30850
L37550 30850
L37590 30880
L37620 30900
L37640 30950
L37640 31000
L37620 31070
L37330 31350
L37640 31350
" />
<path d="M39000 32500
L36000 32500
" />
</g>
<g style="fill:#009F9F; fill-opacity:0.0; 
stroke:#009F9F; stroke-width:60; stroke-opacity:1; 
stroke-linecap:round; stroke-linejoin:round;">
<path d="M39520 32700
L39520 32200
L39710 32200
L39760 32230
L39780 32250
L39800 32300
L39800 32370
L39780 32420
L39760 32440
L39710 32460
L39520 32460
" />
<path d="M40020 32700
L40020 32200
" />
<path d="M40260 32700
L40260 32200
L40540 32700
L40540 32200
" />
<path d="M40730 32200
L41040 32200
L40870 32390
L40950 32390
L40990 32420
L41020 32440
L41040 32490
L41040 32610
L41020 32650
L40990 32680
L40950 32700
L40800 32700
L40760 32680
L40730 32650
" />
</g>
<g style="fill:#9F0000; fill-opacity:0.0; 
stroke:#9F0000; stroke-width:60; stroke-opacity:1; 
stroke-linecap:round; stroke-linejoin:round;">
<path d="M37330 31850
L37640 31850
L37470 32040
L37550 32040
L37590 32070
L37620 32090
L37640 32140
L37640 32260
L37620 32300
L37590 32330
L37550 32350
L37400 32350
L37360 32330
L37330 32300
" />
<path d="M39000 33500
L36000 33500
" />
</g>
<g style="fill:#009F9F; fill-opacity:0.0; 
stroke:#009F9F; stroke-width:60; stroke-opacity:1; 
stroke-linecap:round; stroke-linejoin:round;">
<path d="M39520 33700
L39520 33200
L39710 33200
L39760 33230
L39780 33250
L39800 33300
L39800 33370
L39780 33420
L39760 33440
L39710 33460
L39520 33460
" />
<path d="M40020 33700
L40020 33200
" />
<path d="M40260 33700
L40260 33200
L40540 33700
L40540 33200
" />
<path d="M40990 33370
L40990 33700
" />
<path d="M40870 33180
L40760 33540
L41060 33540
" />
</g>
<g style="fill:#9F0000; fill-opacity:0.0; 
stroke:#9F0000; stroke-width:60; stroke-opacity:1; 
stroke-linecap:round; stroke-linejoin:round;">
<path d="M37590 33020
L37590 33350
" />
<path d="M37470 32830
L37360 33190
L37660 33190
" />
<path d="M39000 34500
L36000 34500
" />
</g>
<g style="fill:#009F9F; fill-opacity:0.0; 
stroke:#009F9F; stroke-width:60; stroke-opacity:1; 
stroke-linecap:round; stroke-linejoin:round;">
<path d="M39520 34700
L39520 34200
L39710 34200
L39760 34230
L39780 34250
L39800 34300
L39800 34370
L39780 34420
L39760 34440
L39710 34460
L39520 34460
" />
<path d="M40020 34700
L40020 34200
" />
<path d="M40260 34700
L40260 34200
L40540 34700
L40540 34200
" />
<path d="M41020 34200
L40780 34200
L40760 34440
L40780 34420
L40830 34390
L40950 34390
L40990 34420
L41020 34440
L41040 34490
L41040 34610
L41020 34650
L40990 34680
L40950 34700
L40830 34700
L40780 34680
L40760 34650
" />
</g>
<g style="fill:#9F0000; fill-opacity:0.0; 
stroke:#9F0000; stroke-width:60; stroke-opacity:1; 
stroke-linecap:round; stroke-linejoin:round;">
<path d="M37620 33850
L37380 33850
L37360 34090
L37380 34070
L37430 34040
L37550 34040
L37590 34070
L37620 34090
L37640 34140
L37640 34260
L37620 34300
L37590 34330
L37550 34350
L37430 34350
L37380 34330
L37360 34300
" />
<path d="M48000 34500
L51000 34500
" />
</g>
<g style="fill:#009F9F; fill-opacity:0.0; 
stroke:#009F9F; stroke-width:60; stroke-opacity:1; 
stroke-linecap:round; stroke-linejoin:round;">
<path d="M45980 34700
L45980 34200
L46170 34200
L46220 34230
L46240 34250
L46260 34300
L46260 34370
L46240 34420
L46220 34440
L46170 34460
L45980 34460
" />
<path d="M46480 34700
L46480 34200
" />
<path d="M46720 34700
L46720 34200
L47000 34700
L47000 34200
" />
<path d="M47450 34200
L47360 34200
L47310 34230
L47290 34250
L47240 34320
L47220 34420
L47220 34610
L47240 34650
L47260 34680
L47310 34700
L47410 34700
L47450 34680
L47480 34650
L47500 34610
L47500 34490
L47480 34440
L47450 34420
L47410 34390
L47310 34390
L47260 34420
L47240 34440
L47220 34490
" />
</g>
<g style="fill:#9F0000; fill-opacity:0.0; 
stroke:#9F0000; stroke-width:60; stroke-opacity:1; 
stroke-linecap:round; stroke-linejoin:round;">
<path d="M49590 33850
L49500 33850
L49450 33880
L49430 33900
L49380 33970
L49360 34070
L49360 34260
L49380 34300
L49400 34330
L49450 34350
L49550 34350
L49590 34330
L49620 34300
L49640 34260
L49640 34140
L49620 34090
L49590 34070
L49550 34040
L49450 34040
L49400 34070
L49380 34090
L49360 34140
" />
<path d="M48000 33500
L51000 33500
" />
</g>
<g style="fill:#009F9F; fill-opacity:0.0; 
stroke:#009F9F; stroke-width:60; stroke-opacity:1; 
stroke-linecap:round; stroke-linejoin:round;">
<path d="M45980 33700
L45980 33200
L46170 33200
L46220 33230
L46240 33250
L46260 33300
L46260 33370
L46240 33420
L46220 33440
L46170 33460
L45980 33460
" />
<path d="M46480 33700
L46480 33200
" />
<path d="M46720 33700
L46720 33200
L47000 33700
L47000 33200
" />
<path d="M47190 33200
L47520 33200
L47310 33700
" />
</g>
<g style="fill:#9F0000; fill-opacity:0.0; 
stroke:#9F0000; stroke-width:60; stroke-opacity:1; 
stroke-linecap:round; stroke-linejoin:round;">
<path d="M49330 32850
L49660 32850
L49450 33350
" />
<path d="M48000 32500
L51000 32500
" />
</g>
<g style="fill:#009F9F; fill-opacity:0.0; 
stroke:#009F9F; stroke-width:60; stroke-opacity:1; 
stroke-linecap:round; stroke-linejoin:round;">
<path d="M45980 32700
L45980 32200
L46170 32200
L46220 32230
L46240 32250
L46260 32300
L46260 32370
L46240 32420
L46220 32440
L46170 32460
L45980 32460
" />
<path d="M46480 32700
L46480 32200
" />
<path d="M46720 32700
L46720 32200
L47000 32700
L47000 32200
" />
<path d="M47310 32420
L47260 32390
L47240 32370
L47220 32320
L47220 32300
L47240 32250
L47260 32230
L47310 32200
L47410 32200
L47450 32230
L47480 32250
L47500 32300
L47500 32320
L47480 32370
L47450 32390
L47410 32420
L47310 32420
L47260 32440
L47240 32460
L47220 32510
L47220 32610
L47240 32650
L47260 32680
L47310 32700
L47410 32700
L47450 32680
L47480 32650
L47500 32610
L47500 32510
L47480 32460
L47450 32440
L47410 32420
" />
</g>
<g style="fill:#9F0000; fill-opacity:0.0; 
stroke:#9F0000; stroke-width:60; stroke-opacity:1; 
stroke-linecap:round; stroke-linejoin:round;">
<path d="M49450 32070
L49400 32040
L49380 32020
L49360 31970
L49360 31950
L49380 31900
L49400 31880
L49450 31850
L49550 31850
L49590 31880
L49620 31900
L49640 31950
L49640 31970
L49620 32020
L49590 32040
L49550 32070
L49450 32070
L49400 32090
L49380 32110
L49360 32160
L49360 32260
L49380 32300
L49400 32330
L49450 32350
L49550 32350
L49590 32330
L49620 32300
L49640 32260
L49640 32160
L49620 32110
L49590 32090
L49550 32070
" />
<path d="M48000 31500
L51000 31500
" />
</g>
<g style="fill:#009F9F; fill-opacity:0.0; 
stroke:#009F9F; stroke-width:60; stroke-opacity:1; 
stroke-linecap:round; stroke-linejoin:round;">
<path d="M45980 31700
L45980 31200
L46170 31200
L46220 31230
L46240 31250
L46260 31300
L46260 31370
L46240 31420
L46220 31440
L46170 31460
L45980 31460
" />
<path d="M46480 31700
L46480 31200
" />
<path d="M46720 31700
L46720 31200
L47000 31700
L47000 31200
" />
<path d="M47260 31700
L47360 31700
L47410 31680
L47430 31650
L47480 31580
L47500 31490
L47500 31300
L47480 31250
L47450 31230
L47410 31200
L47310 31200
L47260 31230
L47240 31250
L47220 31300
L47220 31420
L47240 31460
L47260 31490
L47310 31510
L47410 31510
L47450 31490
L47480 31460
L47500 31420
" />
</g>
<g style="fill:#9F0000; fill-opacity:0.0; 
stroke:#9F0000; stroke-width:60; stroke-opacity:1; 
stroke-linecap:round; stroke-linejoin:round;">
<path d="M49400 31350
L49500 31350
L49550 31330
L49570 31300
L49620 31230
L49640 31140
L49640 30950
L49620 30900
L49590 30880
L49550 30850
L49450 30850
L49400 30880
L49380 30900
L49360 30950
L49360 31070
L49380 31110
L49400 31140
L49450 31160
L49550 31160
L49590 31140
L49620 31110
L49640 31070
" />
<path d="M48000 30500
L51000 30500
" />
</g>
<g style="fill:#009F9F; fill-opacity:0.0; 
stroke:#009F9F; stroke-width:60; stroke-opacity:1; 
stroke-linecap:round; stroke-linejoin:round;">
<path d="M45500 30700
L45500 30200
L45690 30200
L45740 30230
L45760 30250
L45780 30300
L45780 30370
L45760 30420
L45740 30440
L45690 30460
L45500 30460
" />
<path d="M46000 30700
L46000 30200
" />
<path d="M46240 30700
L46240 30200
L46520 30700
L46520 30200
" />
<path d="M47020 30700
L46740 30700
" />
<path d="M46880 30700
L46880 30200
L46830 30270
L46780 30320
L46740 30350
" />
<path d="M47330 30200
L47380 30200
L47430 30230
L47450 30250
L47480 30300
L47500 30390
L47500 30510
L47480 30610
L47450 30650
L47430 30680
L47380 30700
L47330 30700
L47290 30680
L47260 30650
L47240 30610
L47220 30510
L47220 30390
L47240 30300
L47260 30250
L47290 30230
L47330 30200
" />
</g>
<g style="fill:#9F0000; fill-opacity:0.0; 
stroke:#9F0000; stroke-width:60; stroke-opacity:1; 
stroke-linecap:round; stroke-linejoin:round;">
<path d="M49400 30350
L49120 30350
" />
<path d="M49260 30350
L49260 29850
L49210 29920
L49160 29970
L49120 30000
" />
<path d="M49710 29850
L49760 29850
L49810 29880
L49830 29900
L49860 29950
L49880 30040
L49880 30160
L49860 30260
L49830 30300
L49810 30330
L49760 30350
L49710 30350
L49670 30330
L49640 30300
L49620 30260
L49600 30160
L49600 30040
L49620 29950
L49640 29900
L49670 29880
L49710 29850
" />
</g>
<g style="fill:#009F9F; fill-opacity:0.0; 
stroke:#009F9F; stroke-width:60; stroke-opacity:1; 
stroke-linecap:round; stroke-linejoin:round;">
<path d="M43010 33670
L43010 33170
" />
<path d="M43530 33620
L43510 33650
L43440 33670
L43390 33670
L43320 33650
L43270 33600
L43250 33550
L43230 33460
L43230 33390
L43250 33290
L43270 33240
L43320 33200
L43390 33170
L43440 33170
L43510 33200
L43530 33220
" />
<path d="M44010 33670
L43730 33670
" />
<path d="M43870 33670
L43870 33170
L43820 33240
L43770 33290
L43730 33320
" />
<path d="M42070 31170
L42350 31170
" />
<path d="M42210 31670
L42210 31170
" />
<path d="M42800 31670
L42640 31430
" />
<path d="M42520 31670
L42520 31170
L42710 31170
L42760 31200
L42780 31220
L42800 31270
L42800 31340
L42780 31390
L42760 31410
L42710 31430
L42520 31430
" />
<path d="M43020 31670
L43020 31170
" />
<path d="M43260 31670
L43260 31170
L43540 31670
L43540 31170
" />
<path d="M43780 31670
L43780 31170
" />
<path d="M44060 31670
L43850 31390
" />
<path d="M44060 31170
L43780 31460
" />
<path d="M44280 31410
L44450 31410
" />
<path d="M44520 31670
L44280 31670
L44280 31170
L44520 31170
" />
<path d="M44660 31170
L44940 31170
" />
<path d="M44800 31670
L44800 31170
" />
</g>
<g style="fill:#009F9F; fill-opacity:0.0; 
stroke:#009F9F; stroke-width:0; stroke-opacity:1; 
stroke-linecap:round; stroke-linejoin:round;">
</g>
<g style="fill:#9F0000; fill-opacity:0.0; 
stroke:#9F0000; stroke-width:60; stroke-opacity:1; 
stroke-linecap:round; stroke-linejoin:round;">
<circle cx="36000" cy="26900" r="200" /> 
<polyline fill="none;"
points="36000,27500
36000,27100
36000,27100
" /> 
</g>
<g style="fill:#009F9F; fill-opacity:0.0; 
stroke:#009F9F; stroke-width:50; stroke-opacity:1; 
stroke-linecap:round; stroke-linejoin:round;">
<path d="M35470 26490
L35700 26490
" />
<path d="M35590 26600
L35590 26370
" />
<path d="M36000 26600
L35830 26600
" />
<path d="M35910 26600
L35910 26300
L35880 26340
L35860 26370
L35830 26390
" />
<path d="M36120 26330
L36130 26320
L36160 26300
L36230 26300
L36260 26320
L36270 26330
L36290 26360
L36290 26390
L36270 26430
L36100 26600
L36290 26600
" />
<path d="M36380 26300
L36480 26600
L36580 26300
" />
</g>
<g style="fill:#009F9F; fill-opacity:0.0; 
stroke:#009F9F; stroke-width:0; stroke-opacity:1; 
stroke-linecap:round; stroke-linejoin:round;">
</g>
<g style="fill:#009F00; fill-opacity:1.0; 
stroke:#009F00; stroke-width:100; stroke-opacity:1; 
stroke-linecap:round; stroke-linejoin:round;">
<circle cx="36000" cy="30500" r="160" /> 
</g>
<g style="fill:#009F00; fill-opacity:1.0; 
stroke:#009F00; stroke-width:0; stroke-opacity:1; 
stroke-linecap:round; stroke-linejoin:round;">
</g>
<g style="fill:#9F0000; fill-opacity:0.0; 
stroke:#9F0000; stroke-width:140; stroke-opacity:1; 
stroke-linecap:round; stroke-linejoin:round;">
<circle cx="61000" cy="32000" r="1110" /> 
</g>
<g style="fill:#9F0000; fill-opacity:0.0; 
stroke:#9F0000; stroke-width:60; stroke-opacity:1; 
stroke-linecap:round; stroke-linejoin:round;">
<circle cx="61000" cy="32000" r="1250" /> 
<circle cx="61500" cy="32500" r="50" /> 
<circle cx="61500" cy="31500" r="50" /> 
</g>
<g style="fill:#9F0000; fill-opacity:0.0; 
stroke:#9F0000; stroke-width:200; stroke-opacity:1; 
stroke-linecap:round; stroke-linejoin:round;">
<polyline fill="none;"
points="60750,32400
60750,32650
" /> 
<polyline fill="none;"
points="60750,31850
60750,32150
" /> 
<polyline fill="none;"
points="60750,31350
60750,31600
" /> 
</g>
<g style="fill:#9F0000; fill-opacity:0.0; 
stroke:#9F0000; stroke-width:60; stroke-opacity:1; 
stroke-linecap:round; stroke-linejoin:round;">
<polyline fill="none;"
points="61700,31850
61650,31900
" /> 
<polyline fill="none;"
points="61700,31850
61900,31850
" /> 
</g>
<g style="fill:#9F0000; fill-opacity:0.0; 
stroke:#9F0000; stroke-width:100; stroke-opacity:1; 
stroke-linecap:round; stroke-linejoin:round;">
<polyline fill="none;"
points="61750,30950
61900,30750
" /> 
<polyline fill="none;"
points="61800,33000
61950,33200
" /> 
</g>
<g style="fill:#9F0000; fill-opacity:0.0; 
stroke:#9F0000; stroke-width:60; stroke-opacity:1; 
stroke-linecap:round; stroke-linejoin:round;">
<polyline fill="none;"
points="61900,31850
61950,31800
" /> 
</g>
<g style="fill:#9F0000; fill-opacity:0.0; 
stroke:#9F0000; stroke-width:100; stroke-opacity:1; 
stroke-linecap:round; stroke-linejoin:round;">
<polyline fill="none;"
points="62150,32600
62350,32700
" /> 
<polyline fill="none;"
points="62150,31400
62350,31250
" /> 
<polyline fill="none;"
points="62300,32000
62550,32000
" /> 
<polyline fill="none;"
points="60500,31400
60500,32600
60500,32600
" /> 
</g>
<g style="fill:#9F0000; fill-opacity:0.0; 
stroke:#9F0000; stroke-width:60; stroke-opacity:1; 
stroke-linecap:round; stroke-linejoin:round;">
<polyline fill="none;"
points="60800,32500
61500,32500
61500,33000
61500,33000
" /> 
<polyline fill="none;"
points="60800,31500
61500,31500
61500,31000
61500,31000
" /> 
<polyline fill="none;"
points="61500,31500
61800,31500
61800,32500
61500,32500
" /> 
</g>
<g style="fill:#9F0000; fill-opacity:1.0; 
stroke:#9F0000; stroke-width:60; stroke-opacity:1; 
stroke-linecap:round; stroke-linejoin:round;">
<polyline style="fill-rule:evenodd;"
points="61800,31850
61700,32100
61900,32100
61800,31850
" /> 
</g>
<g style="fill:#9F0000; fill-opacity:0.0; 
stroke:#9F0000; stroke-width:60; stroke-opacity:1; 
stroke-linecap:round; stroke-linejoin:round;">
<polyline fill="none;"
points="60800,32000
61000,32000
61500,32000
61500,32500
61500,32500
" /> 
</g>
<g style="fill:#9F0000; fill-opacity:1.0; 
stroke:#9F0000; stroke-width:60; stroke-opacity:1; 
stroke-linecap:round; stroke-linejoin:round;">
<polyline style="fill-rule:evenodd;"
points="60850,32000
61250,31850
61250,32150
60850,32000
60900,32000
60900,32000
" /> 
<path d="M61500 31000
L61500 30000
" />
</g>
<g style="fill:#009F9F; fill-opacity:0.0; 
stroke:#009F9F; stroke-width:60; stroke-opacity:1; 
stroke-linecap:round; stroke-linejoin:round;">
<path d="M61360 30600
L60960 30600
L60960 30510
L60980 30450
L61020 30410
L61060 30400
L61130 30380
L61190 30380
L61270 30400
L61300 30410
L61340 30450
L61360 30510
L61360 30600
" />
</g>
<g style="fill:#9F0000; fill-opacity:0.0; 
stroke:#9F0000; stroke-width:60; stroke-opacity:1; 
stroke-linecap:round; stroke-linejoin:round;">
<path d="M61960 30390
L61960 30610
" />
<path d="M61960 30500
L61560 30500
L61620 30540
L61660 30580
L61680 30610
" />
<path d="M60500 32500
L58500 32500
" />
</g>
<g style="fill:#009F9F; fill-opacity:0.0; 
stroke:#009F9F; stroke-width:60; stroke-opacity:1; 
stroke-linecap:round; stroke-linejoin:round;">
<path d="M59600 31980
L59570 31960
L59510 31960
L59450 31980
L59410 32020
L59400 32060
L59380 32130
L59380 32190
L59400 32270
L59410 32300
L59450 32340
L59510 32360
L59550 32360
L59600 32340
L59620 32320
L59620 32190
L59550 32190
" />
</g>
<g style="fill:#9F0000; fill-opacity:0.0; 
stroke:#9F0000; stroke-width:60; stroke-opacity:1; 
stroke-linecap:round; stroke-linejoin:round;">
<path d="M59390 32600
L59410 32580
L59440 32560
L59540 32560
L59580 32580
L59600 32600
L59610 32640
L59610 32680
L59600 32730
L59370 32960
L59610 32960
" />
<path d="M61500 33000
L61500 34000
" />
</g>
<g style="fill:#009F9F; fill-opacity:0.0; 
stroke:#009F9F; stroke-width:60; stroke-opacity:1; 
stroke-linecap:round; stroke-linejoin:round;">
<path d="M61340 33610
L61360 33560
L61360 33460
L61340 33420
L61320 33400
L61290 33390
L61250 33390
L61210 33400
L61190 33420
L61170 33460
L61150 33540
L61130 33580
L61110 33590
L61080 33610
L61040 33610
L61000 33590
L60980 33580
L60960 33540
L60960 33440
L60980 33390
" />
</g>
<g style="fill:#9F0000; fill-opacity:0.0; 
stroke:#9F0000; stroke-width:60; stroke-opacity:1; 
stroke-linecap:round; stroke-linejoin:round;">
<path d="M61560 33630
L61560 33390
L61710 33520
L61710 33460
L61730 33420
L61750 33400
L61790 33390
L61890 33390
L61920 33400
L61940 33420
L61960 33460
L61960 33580
L61940 33610
L61920 33630
" />
</g>
<g style="fill:#009F9F; fill-opacity:0.0; 
stroke:#009F9F; stroke-width:60; stroke-opacity:1; 
stroke-linecap:round; stroke-linejoin:round;">
<path d="M60060 33650
L60020 33630
L59990 33590
L59930 33540
L59890 33520
L59850 33520
" />
<path d="M59870 33610
L59830 33590
L59800 33550
L59780 33480
L59780 33350
L59800 33270
L59830 33230
L59870 33210
L59950 33210
L59990 33230
L60020 33270
L60040 33350
L60040 33480
L60020 33550
L59990 33590
L59950 33610
L59870 33610
" />
<path d="M60420 33610
L60200 33610
" />
<path d="M60310 33610
L60310 33210
L60270 33270
L60230 33310
L60200 33330
" />
<path d="M58110 30640
L58110 30240
" />
<path d="M58520 30640
L58390 30450
" />
<path d="M58300 30640
L58300 30240
L58450 30240
L58490 30260
L58500 30280
L58520 30320
L58520 30380
L58500 30410
L58490 30430
L58450 30450
L58300 30450
" />
<path d="M58830 30430
L58700 30430
" />
<path d="M58700 30640
L58700 30240
L58890 30240
" />
<path d="M59230 30240
L59040 30240
L59020 30430
L59040 30410
L59070 30390
L59170 30390
L59210 30410
L59230 30430
L59240 30470
L59240 30570
L59230 30600
L59210 30620
L59170 30640
L59070 30640
L59040 30620
L59020 30600
" />
<path d="M59590 30380
L59590 30640
" />
<path d="M59490 30220
L59400 30510
L59640 30510
" />
<path d="M59870 30240
L59910 30240
L59950 30260
L59970 30280
L59990 30320
L60000 30390
L60000 30490
L59990 30570
L59970 30600
L59950 30620
L59910 30640
L59870 30640
L59830 30620
L59810 30600
L59800 30570
L59780 30490
L59780 30390
L59800 30320
L59810 30280
L59830 30260
L59870 30240
" />
<path d="M60180 30640
L60180 30240
L60400 30640
L60400 30240
" />
</g>
<g style="fill:#9F009F; fill-opacity:0.0; 
stroke:#9F009F; stroke-width:50; stroke-opacity:1; 
stroke-linecap:round; stroke-linejoin:round;">
<path d="M58060 30790
L58220 30790
" />
<path d="M58140 31080
L58140 30790
" />
<path d="M58370 30790
L58430 30790
L58460 30810
L58480 30830
L58500 30890
L58500 30990
L58480 31040
L58460 31070
L58430 31080
L58370 31080
L58350 31070
L58320 31040
L58310 30990
L58310 30890
L58320 30830
L58350 30810
L58370 30790
" />
<path d="M58610 30820
L58620 30810
L58650 30790
L58720 30790
L58740 30810
L58760 30820
L58770 30850
L58770 30880
L58760 30920
L58590 31080
L58770 31080
" />
<path d="M58890 30820
L58900 30810
L58930 30790
L59000 30790
L59020 30810
L59040 30820
L59050 30850
L59050 30880
L59040 30920
L58870 31080
L59050 31080
" />
<path d="M59230 30790
L59260 30790
L59290 30810
L59300 30820
L59320 30850
L59330 30900
L59330 30970
L59320 31030
L59300 31050
L59290 31070
L59260 31080
L59230 31080
L59210 31070
L59190 31050
L59180 31030
L59170 30970
L59170 30900
L59180 30850
L59190 30820
L59210 30810
L59230 30790
" />
</g>
<g style="fill:#9F009F; fill-opacity:0.0; 
stroke:#9F009F; stroke-width:0; stroke-opacity:1; 
stroke-linecap:round; stroke-linejoin:round;">
</g>
<g style="fill:#9F0000; fill-opacity:0.0; 
stroke:#9F0000; stroke-width:60; stroke-opacity:1; 
stroke-linecap:round; stroke-linejoin:round;">
<polyline fill="none;"
points="61000,42000
61500,42500
62000,42000
61000,42000
" /> 
</g>
<g style="fill:#9F0000; fill-opacity:0.0; 
stroke:#9F0000; stroke-width:0; stroke-opacity:1; 
stroke-linecap:round; stroke-linejoin:round;">
</g>
<g style="fill:#9F0000; fill-opacity:0.0; 
stroke:#9F0000; stroke-width:60; stroke-opacity:1; 
stroke-linecap:round; stroke-linejoin:round;">
<circle cx="61500" cy="27000" r="200" /> 
<polyline fill="none;"
points="61500,27500
61500,27200
61500,27200
" /> 
</g>
<g style="fill:#009F9F; fill-opacity:0.0; 
stroke:#009F9F; stroke-width:50; stroke-opacity:1; 
stroke-linecap:round; stroke-linejoin:round;">
<path d="M61100 26300
L61200 26600
L61300 26300
" />
<path d="M61570 26570
L61560 26590
L61520 26600
L61490 26600
L61440 26590
L61420 26560
L61400 26530
L61390 26470
L61390 26430
L61400 26370
L61420 26340
L61440 26320
L61490 26300
L61520 26300
L61560 26320
L61570 26330
" />
<path d="M61870 26570
L61860 26590
L61820 26600
L61790 26600
L61740 26590
L61720 26560
L61700 26530
L61690 26470
L61690 26430
L61700 26370
L61720 26340
L61740 26320
L61790 26300
L61820 26300
L61860 26320
L61870 26330
" />
</g>
<g style="fill:#009F9F; fill-opacity:0.0; 
stroke:#009F9F; stroke-width:60; stroke-opacity:1; 
stroke-linecap:round; stroke-linejoin:round;">
</g>
<g style="fill:#009F00; fill-opacity:0.0; 
stroke:#009F00; stroke-width:60; stroke-opacity:1; 
stroke-linecap:round; stroke-linejoin:round;">
<path d="M61500 27500
L61500 30000
" />
</g>
<g style="fill:#009F00; fill-opacity:0.0; 
stroke:#009F00; stroke-width:0; stroke-opacity:1; 
stroke-linecap:round; stroke-linejoin:round;">
</g>
<g style="fill:#9F0000; fill-opacity:0.0; 
stroke:#9F0000; stroke-width:60; stroke-opacity:1; 
stroke-linecap:round; stroke-linejoin:round;">
<rect x="54000" y="36000" width="1000" height="3000" rx="0" />
</g>
<g style="fill:#9F0000; fill-opacity:1.0; 
stroke:#9F0000; stroke-width:60; stroke-opacity:1; 
stroke-linecap:round; stroke-linejoin:round;">
<polyline style="fill-rule:evenodd;"
points="54000,37500
53800,37700
53800,37300
" /> 
<path d="M54500 39000
L54500 40000
" />
</g>
<g style="fill:#9F0000; fill-opacity:0.0; 
stroke:#9F0000; stroke-width:60; stroke-opacity:1; 
stroke-linecap:round; stroke-linejoin:round;">
<path d="M54360 39390
L54360 39610
" />
<path d="M54360 39500
L53960 39500
L54020 39540
L54060 39580
L54080 39610
" />
<path d="M53800 37500
L53000 37500
" />
<path d="M53290 37000
L53310 36980
L53340 36960
L53440 36960
L53480 36980
L53500 37000
L53510 37040
L53510 37080
L53500 37130
L53270 37360
L53510 37360
" />
<path d="M54500 36000
L54500 35000
" />
<path d="M53960 35630
L53960 35390
L54110 35520
L54110 35460
L54130 35420
L54150 35400
L54190 35390
L54290 35390
L54320 35400
L54340 35420
L54360 35460
L54360 35580
L54340 35610
L54320 35630
" />
</g>
<g style="fill:#009F9F; fill-opacity:0.0; 
stroke:#009F9F; stroke-width:60; stroke-opacity:1; 
stroke-linecap:round; stroke-linejoin:round;">
<path d="M55670 37790
L55430 37950
" />
<path d="M55670 38070
L55170 38070
L55170 37880
L55200 37830
L55220 37810
L55270 37790
L55340 37790
L55390 37810
L55410 37830
L55430 37880
L55430 38070
" />
<path d="M55170 37640
L55670 37480
L55170 37310
" />
<path d="M55670 36880
L55670 37160
" />
<path d="M55670 37020
L55170 37020
L55240 37070
L55290 37120
L55320 37160
" />
<path d="M54670 37850
L54670 38130
" />
<path d="M54670 37990
L54170 37990
L54240 38040
L54290 38090
L54320 38130
" />
<path d="M54170 37540
L54170 37490
L54200 37440
L54220 37420
L54270 37390
L54360 37370
L54480 37370
L54580 37390
L54620 37420
L54650 37440
L54670 37490
L54670 37540
L54650 37580
L54620 37610
L54580 37630
L54480 37650
L54360 37650
L54270 37630
L54220 37610
L54200 37580
L54170 37540
" />
<path d="M54670 37150
L54170 37150
" />
<path d="M54670 36870
L54390 37080
" />
<path d="M54170 36870
L54460 37150
" />
</g>
<g style="fill:#009F00; fill-opacity:0.0; 
stroke:#009F00; stroke-width:60; stroke-opacity:1; 
stroke-linecap:round; stroke-linejoin:round;">
<path d="M51000 34500
L51000 37500
" />
<path d="M51000 37500
L53000 37500
" />
<path d="M51000 33500
L54500 33500
" />
<path d="M54500 33500
L54500 35000
" />
<path d="M51000 32500
L58500 32500
" />
<path d="M61500 34000
L61500 42000
" />
<path d="M34000 40000
L61500 40000
" />
</g>
<g style="fill:#009F00; fill-opacity:0.0; 
stroke:#009F00; stroke-width:0; stroke-opacity:1; 
stroke-linecap:round; stroke-linejoin:round;">
</g>
<g style="fill:#009F00; fill-opacity:1.0; 
stroke:#009F00; stroke-width:100; stroke-opacity:1; 
stroke-linecap:round; stroke-linejoin:round;">
<circle cx="61500" cy="40000" r="160" /> 
</g>
<g style="fill:#009F00; fill-opacity:1.0; 
stroke:#009F00; stroke-width:60; stroke-opacity:1; 
stroke-linecap:round; stroke-linejoin:round;">
</g>
<g style="fill:#9F0000; fill-opacity:0.0; 
stroke:#9F0000; stroke-width:60; stroke-opacity:1; 
stroke-linecap:round; stroke-linejoin:round;">
<path d="M52940 26640
L53280 26640
" />
<path d="M53110 27240
L53110 26640
" />
<path d="M53570 27240
L53510 27210
L53480 27190
L53450 27130
L53450 26960
L53480 26900
L53510 26870
L53570 26840
L53650 26840
L53710 26870
L53740 26900
L53770 26960
L53770 27130
L53740 27190
L53710 27210
L53650 27240
L53570 27240
" />
<path d="M54770 27240
L54480 27240
L54480 26640
" />
<path d="M55060 27240
L55000 27210
L54970 27190
L54940 27130
L54940 26960
L54970 26900
L55000 26870
L55060 26840
L55140 26840
L55200 26870
L55230 26900
L55260 26960
L55260 27130
L55230 27190
L55200 27210
L55140 27240
L55060 27240
" />
<path d="M55770 27240
L55770 26930
L55740 26870
L55680 26840
L55570 26840
L55510 26870
" />
<path d="M55770 27210
L55710 27240
L55570 27240
L55510 27210
L55480 27160
L55480 27100
L55510 27040
L55570 27010
L55710 27010
L55770 26990
" />
<path d="M56310 27240
L56310 26640
" />
<path d="M56310 27210
L56250 27240
L56140 27240
L56080 27210
L56050 27190
L56020 27130
L56020 26960
L56050 26900
L56080 26870
L56140 26840
L56250 26840
L56310 26870
" />
<path d="M57050 26840
L57050 27240
" />
<path d="M57050 26900
L57080 26870
L57140 26840
L57220 26840
L57280 26870
L57310 26930
L57310 27240
" />
<path d="M57820 27210
L57760 27240
L57650 27240
L57590 27210
L57560 27160
L57560 26930
L57590 26870
L57650 26840
L57760 26840
L57820 26870
L57850 26930
L57850 26990
L57560 27040
" />
<path d="M58360 26840
L58360 27330
L58330 27390
L58300 27410
L58250 27440
L58160 27440
L58100 27410
" />
<path d="M58360 27210
L58300 27240
L58190 27240
L58130 27210
L58100 27190
L58070 27130
L58070 26960
L58100 26900
L58130 26870
L58190 26840
L58300 26840
L58360 26870
" />
<path d="M58900 27240
L58900 26930
L58870 26870
L58810 26840
L58700 26840
L58640 26870
" />
<path d="M58900 27210
L58840 27240
L58700 27240
L58640 27210
L58610 27160
L58610 27100
L58640 27040
L58700 27010
L58840 27010
L58900 26990
" />
<path d="M59100 26840
L59330 26840
" />
<path d="M59180 26640
L59180 27160
L59210 27210
L59270 27240
L59330 27240
" />
<path d="M59520 27240
L59520 26840
" />
<path d="M59520 26640
L59490 26670
L59520 26700
L59550 26670
L59520 26640
L59520 26700
" />
<path d="M59760 26840
L59900 27240
L60040 26840
" />
<path d="M60500 27210
L60440 27240
L60330 27240
L60270 27210
L60240 27160
L60240 26930
L60270 26870
L60330 26840
L60440 26840
L60500 26870
L60530 26930
L60530 26990
L60240 27040
" />
</g>
<g style="fill:#9F0000; fill-opacity:0.0; 
stroke:#9F0000; stroke-width:100; stroke-opacity:1; 
stroke-linecap:round; stroke-linejoin:round;">
<polyline fill="none;"
points="61000,27000
60700,26430
52650,26430
52650,27000
52650,27570
60700,27570
61000,27000
" /> 
</g>
<g style="fill:#9F0000; fill-opacity:0.0; 
stroke:#9F0000; stroke-width:60; stroke-opacity:1; 
stroke-linecap:round; stroke-linejoin:round;">
</g>
<g style="fill:#009F00; fill-opacity:0.0; 
stroke:#009F00; stroke-width:60; stroke-opacity:1; 
stroke-linecap:round; stroke-linejoin:round;">
<path d="M36000 30500
L36000 27500
" />
<path d="M34000 40000
L34000 31500
" />
<path d="M34000 31500
L36000 31500
" />
</g>
<g style="fill:#009F00; fill-opacity:0.0; 
stroke:#009F00; stroke-width:0; stroke-opacity:1; 
stroke-linecap:round; stroke-linejoin:round;">
</g>
<g style="fill:#009F00; fill-opacity:1.0; 
stroke:#009F00; stroke-width:100; stroke-opacity:1; 
stroke-linecap:round; stroke-linejoin:round;">
<circle cx="54500" cy="40000" r="160" /> 
</g> 
</svg>
